HIERARCHY
ROOT newVegas:Hips
{
	OFFSET 0.000000 96.479958 0.000000
	CHANNELS 6 Xposition Yposition Zposition Xrotation Yrotation Zrotation
	JOINT newVegas:Pelvis
	{
		OFFSET 0.000000 0.000000 0.000000
		CHANNELS 3 Xrotation Yrotation Zrotation
		JOINT newVegas:LeftUpLeg
		{
			OFFSET 18.735201 -5.666702 -4.541200
			CHANNELS 3 Xrotation Yrotation Zrotation
			JOINT newVegas:LeftLeg
			{
				OFFSET -0.021200 -31.938179 0.493100
				CHANNELS 3 Xrotation Yrotation Zrotation
				JOINT newVegas:LeftFoot
				{
					OFFSET 0.021200 -31.938179 -4.336299
					CHANNELS 3 Xrotation Yrotation Zrotation
					JOINT newVegas:LeftToeBase
					{
						OFFSET 0.943001 -26.722000 15.023500
						CHANNELS 3 Xrotation Yrotation Zrotation
						End Site
						{
							OFFSET 0.000000 30.670183 0.000000
						}
					}
				}
				JOINT newVegas:Left_PantLeg
				{
					OFFSET 0.663870 -9.044666 -1.108900
					CHANNELS 3 Xrotation Yrotation Zrotation
					End Site
					{
						OFFSET 1.415995 20.635357 0.000000
					}
				}
			}
		}
		JOINT newVegas:RightUpLeg
		{
			OFFSET -18.735201 -5.666702 -4.541200
			CHANNELS 3 Xrotation Yrotation Zrotation
			JOINT newVegas:RightLeg
			{
				OFFSET 0.018946 -31.938133 0.493100
				CHANNELS 3 Xrotation Yrotation Zrotation
				JOINT newVegas:RightFoot
				{
					OFFSET -0.018946 -31.938126 -4.336299
					CHANNELS 3 Xrotation Yrotation Zrotation
					JOINT newVegas:RightToeBase
					{
						OFFSET -0.943001 -26.722004 15.023500
						CHANNELS 3 Xrotation Yrotation Zrotation
						End Site
						{
							OFFSET 0.000000 30.670187 0.000000
						}
					}
				}
				JOINT newVegas:Right_PantLeg
				{
					OFFSET -0.661674 -9.044716 -1.108900
					CHANNELS 3 Xrotation Yrotation Zrotation
					End Site
					{
						OFFSET -1.415958 20.635269 0.000000
					}
				}
			}
		}
	}
	JOINT newVegas:Spine
	{
		OFFSET 0.000000 10.199997 -0.299500
		CHANNELS 3 Xrotation Yrotation Zrotation
		JOINT newVegas:Spine1
		{
			OFFSET 0.000000 11.900002 -1.516600
			CHANNELS 3 Xrotation Yrotation Zrotation
			JOINT newVegas:Spine2
			{
				OFFSET 0.000000 13.600006 -2.842500
				CHANNELS 3 Xrotation Yrotation Zrotation
				JOINT newVegas:Neck
				{
					OFFSET 0.000000 9.624100 -2.890100
					CHANNELS 3 Xrotation Yrotation Zrotation
					JOINT newVegas:Head
					{
						OFFSET 0.000000 14.068802 -1.351900
						CHANNELS 3 Xrotation Yrotation Zrotation
						JOINT newVegas:Hair_Back
						{
							OFFSET 0.000000 3.231903 -17.524799
							CHANNELS 3 Xrotation Yrotation Zrotation
							End Site
							{
								OFFSET 0.000000 19.849884 0.000000
							}
						}
						JOINT newVegas:Hair_Front
						{
							OFFSET 0.000000 31.260406 4.573800
							CHANNELS 3 Xrotation Yrotation Zrotation
							JOINT newVegas:Hair_Front1
							{
								OFFSET 0.000000 2.284103 11.993300
								CHANNELS 3 Xrotation Yrotation Zrotation
								JOINT newVegas:Hair_Front2
								{
									OFFSET 0.000000 2.284103 11.993300
									CHANNELS 3 Xrotation Yrotation Zrotation
									End Site
									{
										OFFSET 0.000000 12.208862 0.000000
									}
								}
							}
						}
						JOINT newVegas:Jowel
						{
							OFFSET 0.000000 -7.458206 6.864100
							CHANNELS 3 Xrotation Yrotation Zrotation
							End Site
							{
								OFFSET 0.000000 19.849884 0.000000
							}
						}
					}
				}
				JOINT newVegas:LeftShoulder
				{
					OFFSET 15.263000 10.923401 -0.547700
					CHANNELS 3 Xrotation Yrotation Zrotation
					JOINT newVegas:LeftArm
					{
						OFFSET 25.438599 -2.830597 -13.032500
						CHANNELS 3 Xrotation Yrotation Zrotation
						JOINT newVegas:LeftForeArm
						{
							OFFSET 29.960503 0.000000 0.000000
							CHANNELS 3 Xrotation Yrotation Zrotation
							JOINT newVegas:LeftHand
							{
								OFFSET 27.849251 0.000000 0.000000
								CHANNELS 3 Xrotation Yrotation Zrotation
								JOINT newVegas:LeftHandThumb1
								{
									OFFSET 4.487587 -3.305161 6.305391
									CHANNELS 3 Xrotation Yrotation Zrotation
									JOINT newVegas:LeftHandThumb2
									{
										OFFSET 5.480453 -3.164139 3.164143
										CHANNELS 3 Xrotation Yrotation Zrotation
										JOINT newVegas:LeftHandThumb3
										{
											OFFSET 5.159721 -2.978973 2.978967
											CHANNELS 3 Xrotation Yrotation Zrotation
											End Site
											{
												OFFSET 2.494507 5.926697 1.738678
											}
										}
									}
								}
								JOINT newVegas:LeftHandIndex1
								{
									OFFSET 18.578728 -0.527832 5.208049
									CHANNELS 3 Xrotation Yrotation Zrotation
									JOINT newVegas:LeftHandIndex2
									{
										OFFSET 3.192009 0.000000 0.000000
										CHANNELS 3 Xrotation Yrotation Zrotation
										JOINT newVegas:LeftHandIndex3
										{
											OFFSET 3.835129 0.000000 0.000000
											CHANNELS 3 Xrotation Yrotation Zrotation
											End Site
											{
												OFFSET -0.034599 3.816971 0.371180
											}
										}
									}
								}
								JOINT newVegas:LeftHandMiddle1
								{
									OFFSET 18.476105 0.000000 0.000000
									CHANNELS 3 Xrotation Yrotation Zrotation
									JOINT newVegas:LeftHandMiddle2
									{
										OFFSET 3.324875 0.000000 0.000000
										CHANNELS 3 Xrotation Yrotation Zrotation
										JOINT newVegas:LeftHandMiddle3
										{
											OFFSET 4.596550 0.000000 0.000000
											CHANNELS 3 Xrotation Yrotation Zrotation
											End Site
											{
												OFFSET 0.057701 4.578827 0.399218
											}
										}
									}
								}
								JOINT newVegas:LeftHandRing1
								{
									OFFSET 17.732719 0.121887 -4.201567
									CHANNELS 3 Xrotation Yrotation Zrotation
									JOINT newVegas:LeftHandRing2
									{
										OFFSET 2.733170 0.000000 0.000000
										CHANNELS 3 Xrotation Yrotation Zrotation
										JOINT newVegas:LeftHandRing3
										{
											OFFSET 3.178268 0.000000 0.000000
											CHANNELS 3 Xrotation Yrotation Zrotation
											End Site
											{
												OFFSET 0.119102 3.170624 0.185394
											}
										}
									}
								}
								JOINT newVegas:LeftHandPinky1
								{
									OFFSET 15.989624 -0.606689 -7.535461
									CHANNELS 3 Xrotation Yrotation Zrotation
									JOINT newVegas:LeftHandPinky2
									{
										OFFSET 2.538986 0.000000 0.000000
										CHANNELS 3 Xrotation Yrotation Zrotation
										JOINT newVegas:LeftHandPinky3
										{
											OFFSET 2.593102 0.000000 0.000000
											CHANNELS 3 Xrotation Yrotation Zrotation
											End Site
											{
												OFFSET -0.150902 2.584198 0.152708
											}
										}
									}
								}
							}
							JOINT newVegas:Left_Sleeve
							{
								OFFSET 0.267448 -0.649796 0.577675
								CHANNELS 3 Xrotation Yrotation Zrotation
								End Site
								{
									OFFSET 0.000000 15.991241 0.000000
								}
							}
							JOINT newVegas:Left_CapeC
							{
								OFFSET 15.715958 -8.608795 -6.935905
								CHANNELS 3 Xrotation Yrotation Zrotation
								JOINT newVegas:Left_CapeC1
								{
									OFFSET 0.000000 -8.688499 0.000000
									CHANNELS 3 Xrotation Yrotation Zrotation
									End Site
									{
										OFFSET 0.000000 8.688499 0.000000
									}
								}
							}
						}
						JOINT newVegas:Left_CapeB
						{
							OFFSET 26.118385 -8.608795 -7.079235
							CHANNELS 3 Xrotation Yrotation Zrotation
							JOINT newVegas:Left_CapeB1
							{
								OFFSET 0.000000 -8.688499 0.000000
								CHANNELS 3 Xrotation Yrotation Zrotation
								End Site
								{
									OFFSET 0.000000 8.688499 0.000000
								}
							}
						}
						JOINT newVegas:Left_CapeA
						{
							OFFSET 5.115639 -8.608795 -10.395809
							CHANNELS 3 Xrotation Yrotation Zrotation
							JOINT newVegas:Left_CapeA1
							{
								OFFSET 0.000000 -8.688499 0.000000
								CHANNELS 3 Xrotation Yrotation Zrotation
								End Site
								{
									OFFSET 0.000000 8.688499 0.000000
								}
							}
						}
					}
				}
				JOINT newVegas:RightShoulder
				{
					OFFSET -15.263000 10.923401 -0.547700
					CHANNELS 3 Xrotation Yrotation Zrotation
					JOINT newVegas:RightArm
					{
						OFFSET -25.438599 -2.830597 -13.032500
						CHANNELS 3 Xrotation Yrotation Zrotation
						JOINT newVegas:RightForeArm
						{
							OFFSET -29.960503 0.000000 0.000000
							CHANNELS 3 Xrotation Yrotation Zrotation
							JOINT newVegas:RightHand
							{
								OFFSET -27.849251 0.000000 0.000000
								CHANNELS 3 Xrotation Yrotation Zrotation
								JOINT newVegas:RightHandThumb1
								{
									OFFSET -4.487587 -3.305161 6.305391
									CHANNELS 3 Xrotation Yrotation Zrotation
									JOINT newVegas:RightHandThumb2
									{
										OFFSET -5.480453 -3.164139 3.164143
										CHANNELS 3 Xrotation Yrotation Zrotation
										JOINT newVegas:RightHandThumb3
										{
											OFFSET -5.159721 -2.978973 2.978967
											CHANNELS 3 Xrotation Yrotation Zrotation
											End Site
											{
												OFFSET -2.494507 5.926697 1.738678
											}
										}
									}
								}
								JOINT newVegas:RightHandIndex1
								{
									OFFSET -18.578728 -0.527832 5.208049
									CHANNELS 3 Xrotation Yrotation Zrotation
									JOINT newVegas:RightHandIndex2
									{
										OFFSET -3.192009 0.000000 0.000000
										CHANNELS 3 Xrotation Yrotation Zrotation
										JOINT newVegas:RightHandIndex3
										{
											OFFSET -3.835129 0.000000 0.000000
											CHANNELS 3 Xrotation Yrotation Zrotation
											End Site
											{
												OFFSET 0.034599 3.816971 0.371180
											}
										}
									}
								}
								JOINT newVegas:RightHandMiddle1
								{
									OFFSET -18.476105 0.000000 0.000000
									CHANNELS 3 Xrotation Yrotation Zrotation
									JOINT newVegas:RightHandMiddle2
									{
										OFFSET -3.324875 0.000000 0.000000
										CHANNELS 3 Xrotation Yrotation Zrotation
										JOINT newVegas:RightHandMiddle3
										{
											OFFSET -4.596550 0.000000 0.000000
											CHANNELS 3 Xrotation Yrotation Zrotation
											End Site
											{
												OFFSET -0.057701 4.578827 0.399218
											}
										}
									}
								}
								JOINT newVegas:RightHandRing1
								{
									OFFSET -17.732719 0.121887 -4.201567
									CHANNELS 3 Xrotation Yrotation Zrotation
									JOINT newVegas:RightHandRing2
									{
										OFFSET -2.733170 0.000000 0.000000
										CHANNELS 3 Xrotation Yrotation Zrotation
										JOINT newVegas:RightHandRing3
										{
											OFFSET -3.178268 0.000000 0.000000
											CHANNELS 3 Xrotation Yrotation Zrotation
											End Site
											{
												OFFSET -0.119102 3.170624 0.185394
											}
										}
									}
								}
								JOINT newVegas:RightHandPinky1
								{
									OFFSET -15.989624 -0.606689 -7.535461
									CHANNELS 3 Xrotation Yrotation Zrotation
									JOINT newVegas:RightHandPinky2
									{
										OFFSET -2.538986 0.000000 0.000000
										CHANNELS 3 Xrotation Yrotation Zrotation
										JOINT newVegas:RightHandPinky3
										{
											OFFSET -2.593102 0.000000 0.000000
											CHANNELS 3 Xrotation Yrotation Zrotation
											End Site
											{
												OFFSET 0.150902 2.584198 0.152708
											}
										}
									}
								}
							}
							JOINT newVegas:Right_CapeC
							{
								OFFSET -15.715958 -8.608795 -6.935905
								CHANNELS 3 Xrotation Yrotation Zrotation
								JOINT newVegas:Right_CapeC1
								{
									OFFSET 0.000000 -8.688499 0.000000
									CHANNELS 3 Xrotation Yrotation Zrotation
									End Site
									{
										OFFSET 0.000000 8.688499 0.000000
									}
								}
							}
							JOINT newVegas:Right_Sleeve
							{
								OFFSET -0.267448 -0.649994 0.577675
								CHANNELS 3 Xrotation Yrotation Zrotation
								End Site
								{
									OFFSET 0.000000 15.991302 0.000000
								}
							}
						}
						JOINT newVegas:Right_CapeA
						{
							OFFSET -5.115540 -8.608795 -10.395824
							CHANNELS 3 Xrotation Yrotation Zrotation
							JOINT newVegas:Right_CapeA1
							{
								OFFSET 0.000000 -8.688499 0.000000
								CHANNELS 3 Xrotation Yrotation Zrotation
								End Site
								{
									OFFSET 0.000000 8.688499 0.000000
								}
							}
						}
						JOINT newVegas:Right_CapeB
						{
							OFFSET -26.118187 -8.608795 -7.079266
							CHANNELS 3 Xrotation Yrotation Zrotation
							JOINT newVegas:Right_CapeB1
							{
								OFFSET 0.000000 -8.688499 0.000000
								CHANNELS 3 Xrotation Yrotation Zrotation
								End Site
								{
									OFFSET 0.000000 8.688499 0.000000
								}
							}
						}
					}
				}
				JOINT newVegas:Left_Collar
				{
					OFFSET 18.625099 8.655502 8.828100
					CHANNELS 3 Xrotation Yrotation Zrotation
					JOINT newVegas:Left_Collar1
					{
						OFFSET 14.783401 10.540405 -1.259500
						CHANNELS 3 Xrotation Yrotation Zrotation
						End Site
						{
							OFFSET 0.000000 18.199875 0.000000
						}
					}
				}
				JOINT newVegas:Collar_Back
				{
					OFFSET 0.000000 15.630707 -20.132601
					CHANNELS 3 Xrotation Yrotation Zrotation
					End Site
					{
						OFFSET 0.000000 22.523010 0.000000
					}
				}
				JOINT newVegas:Left_Peck
				{
					OFFSET 17.239599 -5.132599 25.482599
					CHANNELS 3 Xrotation Yrotation Zrotation
					End Site
					{
						OFFSET 0.000000 22.523010 0.000000
					}
				}
				JOINT newVegas:Right_Peck
				{
					OFFSET -17.239599 -5.132202 25.482599
					CHANNELS 3 Xrotation Yrotation Zrotation
					End Site
					{
						OFFSET 0.000000 22.523010 0.000000
					}
				}
				JOINT newVegas:Right_Collar
				{
					OFFSET -18.625099 8.655792 8.828100
					CHANNELS 3 Xrotation Yrotation Zrotation
					JOINT newVegas:Right_Collar1
					{
						OFFSET -14.783401 10.539993 -1.259500
						CHANNELS 3 Xrotation Yrotation Zrotation
						End Site
						{
							OFFSET 0.000000 18.199631 0.000000
						}
					}
				}
			}
		}
		JOINT newVegas:Belly
		{
			OFFSET 0.000000 -6.540398 9.014299
			CHANNELS 3 Xrotation Yrotation Zrotation
			End Site
			{
				OFFSET 0.000000 11.566666 0.000000
			}
		}
	}
	JOINT newVegas:ElvisFacialAnim_Joint
	{
		OFFSET 1.000000 -95.330101 -8.825800
		CHANNELS 3 Xrotation Yrotation Zrotation
		End Site
		{
			OFFSET 0.000000 35.315800 0.000000
		}
	}
}
MOTION
Frames: 4
Frame Time: 0.033333
-1.248975 90.271927 -81.641327 16.535591 -27.982187 3.179725 0.000000 0.000001 -0.000000 -50.469736 5.337139 27.470544 38.013513 3.267399 -2.335575 11.237128 16.362861 -15.253918 0.000000 -0.000001 -0.000000 -0.000000 0.000000 -0.000002 -38.354640 -7.255452 5.765355 39.038322 -4.078842 -9.834659 -8.668387 -25.533281 22.564073 0.000000 -0.000000 0.000000 0.000001 0.000001 -0.000000 7.415069 2.081017 3.220956 5.666904 0.016212 0.867855 5.729616 0.021551 0.367888 -4.065210 1.759688 0.694335 -4.065268 1.759716 0.694274 0.000001 -0.000001 0.000001 -4.065179 1.759507 0.694369 -4.065142 1.759843 0.694302 0.000000 0.000001 -0.000001 0.000001 -0.000001 -0.000000 -0.156079 -6.572396 6.108443 10.104474 33.036901 -73.070866 -0.000004 -54.297965 -0.000007 -5.665564 7.058939 -13.681975 -6.820326 -5.149933 -4.360146 8.175797 27.846278 0.449516 0.000001 -0.000001 -0.000006 1.035679 5.588289 -33.435029 3.125950 5.179667 -62.200197 0.000001 -0.000003 -0.000003 1.365932 6.037678 -38.902985 3.266310 5.250964 -63.744523 -0.000000 -0.000002 0.000001 3.770533 7.989643 -54.925892 3.833810 5.493440 -69.799950 0.000001 -0.000002 0.000002 2.502405 12.572566 -51.923440 3.232305 5.234119 -63.372373 -0.000000 -0.000003 -0.000001 0.000001 0.000001 0.000002 0.000001 0.000001 0.000002 0.000000 0.000002 0.000002 -0.000002 -0.000001 0.000001 -0.000002 -0.000001 0.000000 -0.000002 -0.000001 0.000001 -0.000001 -0.000000 0.000001 2.595223 2.956327 2.854038 22.856451 40.032470 20.847617 -0.001335 99.786011 0.001311 13.568509 10.168586 -8.532020 0.600885 -1.457546 3.039783 6.358748 -14.450705 -2.112505 0.000002 0.000001 -0.000000 0.297890 -3.787024 18.825203 3.493257 -4.509694 75.512017 0.000001 0.000001 0.000000 1.770159 -6.218705 34.635630 3.483816 -4.507241 75.392052 -0.000001 0.000001 0.000002 2.857005 -6.835655 49.015599 3.492788 -4.509540 75.505986 0.000002 0.000002 0.000001 6.450333 -11.269062 65.431846 3.484952 -4.507539 75.406545 -0.000001 0.000002 0.000000 0.000001 0.000002 0.000003 -0.000000 -0.000000 0.000004 0.000001 0.000001 0.000003 0.000001 -0.000002 -0.000002 0.000001 -0.000001 -0.000002 0.000001 -0.000002 -0.000002 0.000001 -0.000001 -0.000001 -0.000001 0.000000 -0.000001 -0.000001 0.000000 -0.000001 -0.000001 0.000000 -0.000001 -0.000001 0.000000 -0.000001 -0.000001 0.000000 -0.000001 -0.000001 0.000000 -0.000001 -0.000001 0.000000 -0.000001 0.000002 -0.000001 0.000000 0.000000 0.000001 -0.000000 
-1.009515 89.850075 -84.047668 14.430967 -26.360951 2.552621 0.000002 -0.000002 0.000000 -50.569553 5.462217 26.532430 36.210883 3.145678 -2.436304 12.820762 15.482934 -13.056429 0.000000 0.000001 -0.000000 -0.000000 0.000000 -0.000000 -37.969240 -4.942815 3.113832 48.624315 -7.799116 -9.889198 -9.554538 -22.896589 20.692032 0.000001 0.000001 -0.000000 -0.000000 0.000000 -0.000000 7.177561 2.136511 4.136640 5.539811 0.364557 1.048027 5.598488 0.363150 0.512099 -3.979310 1.645273 0.562690 -3.979311 1.645267 0.562695 0.000001 -0.000003 0.000001 -3.979228 1.645282 0.562687 -3.979319 1.645259 0.562695 0.000001 0.000002 -0.000001 0.000001 -0.000003 0.000001 -0.304551 -6.006962 5.872022 9.865617 29.560126 -73.183319 0.000010 -54.075458 0.000001 -5.051202 8.410964 -12.671679 -6.820310 -5.149939 -4.360129 8.175792 27.846273 0.449466 -0.000001 -0.000002 -0.000003 1.064521 5.631349 -33.942809 3.197403 5.216560 -62.988913 0.000001 -0.000001 -0.000002 1.396318 6.074808 -39.373192 3.336818 5.285010 -64.512455 -0.000001 -0.000001 -0.000000 3.812754 8.013150 -55.108982 3.882751 5.511125 -70.310425 0.000001 -0.000004 0.000001 2.500780 12.571330 -51.903444 3.331076 5.282269 -64.449979 0.000001 -0.000002 -0.000000 -0.000003 0.000002 -0.000002 -0.000003 0.000002 -0.000002 -0.000003 0.000002 -0.000002 -0.000002 -0.000001 -0.000001 -0.000002 -0.000002 -0.000003 -0.000002 -0.000001 -0.000001 -0.000002 0.000000 -0.000000 3.071338 0.727772 2.730905 24.055504 39.086239 20.029424 0.000600 101.849520 -0.000607 15.285777 10.588531 -9.616143 0.605944 -1.469521 3.035325 6.358736 -14.450715 -2.112490 0.000002 0.000000 -0.000002 0.331911 -3.883141 20.078683 3.503229 -4.512228 75.638662 0.000002 -0.000003 0.000002 1.825417 -6.260145 35.413790 3.493787 -4.509816 75.518738 0.000003 -0.000000 0.000001 2.892947 -6.850437 49.454528 3.502740 -4.512111 75.632672 0.000002 0.000001 -0.000000 6.459837 -11.273302 65.559543 3.494901 -4.510096 75.533163 0.000001 0.000003 0.000001 0.000000 0.000002 0.000001 -0.000001 0.000001 0.000000 0.000000 0.000002 0.000001 -0.000001 0.000003 0.000004 -0.000001 0.000004 0.000003 -0.000001 0.000003 0.000004 -0.000001 0.000004 0.000003 -0.000002 -0.000001 0.000001 -0.000002 -0.000001 0.000001 -0.000002 -0.000001 0.000001 -0.000002 -0.000001 0.000001 -0.000002 -0.000001 0.000001 -0.000002 -0.000001 0.000001 -0.000002 -0.000001 0.000001 0.000001 0.000001 0.000000 0.000002 -0.000002 0.000000 
-1.076384 88.860077 -86.396324 12.959241 -24.338776 2.584364 0.000000 -0.000001 -0.000000 -51.588456 5.552401 25.573673 35.077847 3.083170 -2.466012 14.620203 14.067158 -11.714439 -0.000000 -0.000002 0.000000 0.000001 -0.000000 0.000000 -36.065841 -2.397850 0.804149 53.897385 -9.203986 -9.918618 -8.499152 -19.165222 18.514404 0.000000 0.000001 0.000000 0.000002 0.000003 0.000000 6.896908 2.191124 4.680248 5.344422 0.745930 1.324031 5.437200 0.757234 0.709415 -3.832324 1.501362 0.429725 -3.832306 1.501355 0.429733 0.000002 0.000002 0.000001 -3.832170 1.501368 0.429726 -3.832464 1.501352 0.429733 0.000000 0.000000 -0.000000 0.000002 0.000002 -0.000000 -0.561259 -5.412316 4.455095 9.172965 25.169271 -72.077333 -0.000004 -53.483270 -0.000010 -5.216418 9.168400 -11.558238 -6.820321 -5.149933 -4.360155 8.175791 27.846273 0.449487 -0.000001 -0.000000 -0.000003 1.076858 5.649514 -34.157868 3.242145 5.239027 -63.480031 -0.000000 -0.000003 -0.000001 1.406957 6.087672 -39.536874 3.378473 5.304584 -64.963746 0.000000 -0.000001 0.000000 3.817508 8.021334 -54.956699 3.898028 5.516545 -70.469521 -0.000000 0.000001 -0.000001 2.469226 12.547015 -51.513645 3.395988 5.312688 -65.153147 0.000000 -0.000005 -0.000000 0.000003 -0.000001 0.000001 0.000003 -0.000001 0.000001 0.000002 -0.000001 0.000001 0.000001 0.000001 -0.000001 0.000001 -0.000000 -0.000003 0.000001 0.000001 -0.000001 0.000001 -0.000001 -0.000000 3.346756 -0.647496 3.251195 25.007826 37.347201 19.490510 -0.000139 102.543379 0.000138 17.826562 11.005803 -10.478447 0.538729 -1.315901 3.088702 6.358730 -14.450696 -2.112487 0.000004 -0.000001 -0.000002 0.347182 -3.924275 20.618142 3.450539 -4.498468 74.967828 -0.000002 -0.000001 -0.000001 1.829167 -6.263571 35.451991 3.441082 -4.495917 74.847460 0.000001 -0.000001 0.000001 2.867003 -6.840132 49.129377 3.450022 -4.498328 74.961422 0.000003 0.000003 -0.000002 6.409553 -11.250554 64.883013 3.442240 -4.496217 74.862323 0.000001 0.000002 -0.000001 -0.000001 0.000002 0.000003 0.000001 0.000000 0.000002 -0.000001 0.000002 0.000001 0.000002 -0.000002 -0.000003 0.000002 -0.000001 -0.000002 0.000002 -0.000002 -0.000003 0.000002 -0.000001 -0.000002 0.000000 -0.000001 0.000000 0.000000 -0.000001 0.000000 0.000000 -0.000001 0.000000 0.000000 -0.000001 0.000000 0.000000 -0.000001 0.000000 0.000000 -0.000001 0.000000 0.000000 -0.000001 0.000000 -0.000001 -0.000003 -0.000000 0.000000 -0.000001 -0.000000 
-1.330429 87.520508 -88.910797 12.198170 -23.069353 3.251614 0.000000 0.000002 -0.000000 -53.163471 5.762453 25.032595 34.257746 2.905662 -2.378768 16.707452 12.971372 -11.307783 -0.000000 -0.000001 -0.000000 0.000001 0.000000 -0.000000 -33.388779 -0.729383 -0.024730 56.608994 -9.736680 -10.055140 -9.233431 -17.178680 14.925842 0.000002 0.000000 0.000000 0.000003 0.000001 -0.000001 6.572415 2.248687 4.911871 5.225367 1.124881 1.500073 5.267461 1.118507 0.910055 -3.783773 1.374521 0.280669 -3.783747 1.374502 0.280672 0.000001 0.000001 -0.000001 -3.783687 1.374512 0.280667 -3.783749 1.374541 0.280664 -0.000000 0.000001 0.000001 0.000001 0.000001 -0.000000 -0.881472 -4.822283 2.233827 8.720193 21.617113 -71.041187 0.000001 -52.254547 -0.000012 -6.016101 9.340857 -10.218357 -6.820310 -5.149950 -4.360146 8.175799 27.846285 0.449483 0.000001 0.000000 -0.000001 1.036156 5.589002 -33.443389 3.201461 5.218621 -63.033630 -0.000001 -0.000001 0.000002 1.356640 6.026195 -38.758059 3.332065 5.282746 -64.460744 0.000000 -0.000001 0.000001 3.722324 7.990662 -53.833481 3.818873 5.487954 -69.643915 -0.000001 0.000003 0.000001 2.357860 12.458383 -50.120683 3.367836 5.299610 -64.848610 0.000000 -0.000003 -0.000000 0.000000 0.000000 -0.000000 0.000000 0.000000 -0.000000 -0.000001 0.000000 0.000000 -0.000001 -0.000001 -0.000001 -0.000001 -0.000001 -0.000002 -0.000001 -0.000001 -0.000001 -0.000001 0.000000 -0.000001 3.294143 -0.900014 4.927966 26.357639 35.267511 18.900462 -0.000529 101.807596 0.000517 21.080470 11.460657 -10.623857 0.386626 -0.969628 3.209718 6.358735 -14.450696 -2.112478 -0.000000 -0.000002 -0.000001 0.340486 -3.906434 20.383994 3.332298 -4.465128 73.454887 -0.000001 -0.000003 -0.000002 1.777071 -6.225784 34.695660 3.322848 -4.462321 73.333631 0.000002 -0.000004 -0.000003 2.775618 -6.801945 47.989824 3.331702 -4.464959 73.447585 0.000003 0.000001 -0.000002 6.297195 -11.197066 63.357456 3.324080 -4.462674 73.349422 0.000003 0.000003 0.000001 -0.000002 0.000001 0.000002 0.000001 -0.000000 0.000003 -0.000002 0.000001 0.000003 -0.000000 -0.000001 0.000003 0.000000 0.000000 0.000001 -0.000000 -0.000001 0.000003 0.000000 0.000000 0.000002 0.000001 -0.000001 0.000002 0.000001 -0.000001 0.000002 0.000001 -0.000001 0.000002 0.000001 -0.000001 0.000002 0.000001 -0.000001 0.000002 0.000001 -0.000001 0.000002 0.000001 -0.000001 0.000002 -0.000001 -0.000001 -0.000000 0.000000 0.000002 -0.000000 
